<?xml version="1.0" encoding="UTF-8" standalone="no"?>
<!DOCTYPE svg PUBLIC "-//W3C//DTD SVG 1.1//EN" "http://www.w3.org/Graphics/SVG/1.1/DTD/svg11.dtd">
<svg width="100%" height="100%" viewBox="0 0 153 101" version="1.1" xmlns="http://www.w3.org/2000/svg" xmlns:xlink="http://www.w3.org/1999/xlink" xml:space="preserve" xmlns:serif="http://www.serif.com/" style="fill-rule:evenodd;clip-rule:evenodd;stroke-linejoin:round;stroke-miterlimit:1.41421;">
    <path d="M1.96,0C0.88,0 0,0.85 0,1.88L0,90.18C0,91.18 0.88,92.04 1.94,92.04L28.04,92.04L28.04,90.39L1.96,90.39C1.81,90.39 1.71,90.29 1.71,90.16L1.71,1.87C1.71,1.73 1.81,1.65 1.95,1.65L150.75,1.65C150.9,1.65 150.99,1.73 150.99,1.88L150.99,90.18C150.99,90.31 150.89,90.4 150.75,90.4L123.35,90.4L123.35,92.04L150.75,92.04C151.82,92.04 152.7,91.18 152.7,90.16L152.7,1.87C152.7,0.85 151.82,0 150.76,0L1.96,0Z" style="fill-rule:nonzero;"/>
    <g transform="matrix(1,0,0,1,-54.1937,45.3379)">
        <text x="93.005px" y="51.811px" style="font-family:'JCfg', 'PilGi';font-size:30px;">Elic</text>
        <text x="141.655px" y="51.811px" style="font-family:'JCfg', 'PilGi';font-size:30px;">Li</text>
    </g>
    <g transform="matrix(0.519517,0,0,0.87703,35.2505,13.3912)">
        <g transform="matrix(0.188934,0,0,0.16404,32.0976,3.15868)">
            <ellipse cx="248.693" cy="282.25" rx="241" ry="68" style="fill:white;"/>
        </g>
        <g id="path5" transform="matrix(0.188934,0,0,0.0974399,23.508,15.4123)">
            <path d="M53.922,319.73C53.922,319.73 53.25,460.89 55.938,470.295C58.626,479.705 60.666,498.48 105.008,518.019C184.323,552.976 319.039,553.377 411.52,535.498C512.348,516.002 531.84,483.736 531.84,483.736L533.856,317.037C533.856,317.037 521.086,345.938 442.438,366.106C417.49,372.502 305.166,389.627 211.883,382.235C76.102,371.488 53.922,319.73 53.922,319.73Z" style="fill-rule:nonzero;stroke:black;stroke-width:10.87px;"/>
        </g>
        <g id="path7" transform="matrix(0.188934,0,0,0.0974399,23.508,15.4123)">
            <path d="M56.777,309.309C56.777,309.309 50.226,287.633 98.622,269.485C147.019,251.337 273.052,228.145 361.782,239.739C450.509,251.337 516.048,282.087 523.101,293.177C530.161,304.272 527.64,329.983 527.64,329.983C527.64,329.983 512.011,309.815 479.243,298.725C446.473,287.635 386.485,272.006 339.597,268.479C292.714,264.948 213.058,272.51 185.331,278.057C157.603,283.6 110.722,294.19 93.581,303.768C76.439,313.345 60.81,326.956 60.81,326.956L56.777,309.309Z" style="fill-rule:nonzero;stroke:black;stroke-width:10.87px;"/>
        </g>
        <g id="path11" transform="matrix(0.188934,0,0,0.0974399,23.508,15.4123)">
            <path d="M532.598,312.679C532.598,270.659 395.309,235.706 302.629,237.05C180.301,238.823 56.106,265.273 56.106,313.675C56.106,362.077 174.106,385.343 292.211,383.585C411.145,381.812 532.598,354.699 532.598,312.679Z" style="fill:none;stroke:black;stroke-width:13.31px;stroke-linecap:round;stroke-linejoin:miter;stroke-miterlimit:4;"/>
        </g>
        <g id="path13" transform="matrix(0.188934,0,0,0.0974399,23.508,15.4123)">
            <path d="M532.598,312.679C536.332,328.757 535.404,361.632 535.16,394.339C534.85,436.37 534.371,478.104 532.492,483.522C529.152,493.152 470.34,547.6 287.84,547.6C105.344,547.6 65.164,491.488 62.668,487.549C53.34,472.826 55.694,451.377 55.266,426.27C55.098,416.684 56.039,327.082 56.274,318.386" style="fill:none;stroke:black;stroke-width:13.31px;stroke-linecap:round;stroke-linejoin:miter;stroke-miterlimit:4;"/>
        </g>
        <g id="path15" transform="matrix(0.188934,0,0,0.0974399,23.508,15.4123)">
            <path d="M532.598,343.602C532.598,301.581 395.309,266.628 302.629,267.968C180.301,269.745 56.106,296.191 56.106,344.593" style="fill:none;stroke:black;stroke-width:8.09px;stroke-linecap:round;stroke-linejoin:miter;stroke-miterlimit:4;"/>
        </g>
    </g>
    <g transform="matrix(1,0,0,1,-1.41163,7.76026)">
        <g id="path18" transform="matrix(0.16404,0,0,0.16404,30.0062,-4.78501)">
            <path d="M275.07,301.582C244.894,296.918 213.683,249.422 244.82,198.066C296.579,112.699 289.183,51.531 289.183,51.531C289.183,51.531 402.11,272.004 294.562,300.91" style="fill:white;fill-rule:nonzero;"/>
        </g>
        <g id="path20" transform="matrix(0.16404,0,0,0.16404,30.0062,-4.78501)">
            <path d="M267.921,299.69C240.346,289.38 216.146,245.36 244.82,198.066C296.579,112.699 289.183,51.531 289.183,51.531C289.183,51.531 396.905,261.842 301.73,298.581" style="fill:none;stroke:rgb(255,129,0);stroke-width:18.29px;stroke-linecap:round;stroke-linejoin:miter;stroke-miterlimit:4;"/>
        </g>
    </g>
</svg>
